<svg width="64" height="64" viewBox="0 0 64 64" fill="none" xmlns="http://www.w3.org/2000/svg">
<rect width="64" height="64" rx="8" fill="white"/>
<rect width="64" height="64" rx="8" fill="url(#paint0_linear)"/>
<path d="M13.6929 34.3887C13.6929 34.0013 13.5562 33.7051 13.2827 33.5C13.0093 33.2904 12.5171 33.0716 11.8062 32.8438C11.0952 32.6113 10.5324 32.3835 10.1177 32.1602C8.98747 31.5495 8.42236 30.7269 8.42236 29.6924C8.42236 29.1546 8.57275 28.6761 8.87354 28.2568C9.17887 27.833 9.61409 27.5026 10.1792 27.2656C10.7489 27.0287 11.3869 26.9102 12.0933 26.9102C12.8042 26.9102 13.4377 27.04 13.9937 27.2998C14.5496 27.555 14.9803 27.9173 15.2856 28.3867C15.5955 28.8561 15.7505 29.3893 15.7505 29.9863H13.6997C13.6997 29.5306 13.5562 29.1774 13.269 28.9268C12.9819 28.6716 12.5786 28.544 12.0591 28.544C11.5578 28.544 11.1681 28.651 10.8901 28.8652C10.6121 29.0749 10.4731 29.3529 10.4731 29.6992C10.4731 30.0228 10.6349 30.294 10.9585 30.5127C11.2866 30.7315 11.7674 30.9365 12.4009 31.1279C13.5675 31.4788 14.4175 31.9141 14.9507 32.4336C15.4839 32.9531 15.7505 33.6003 15.7505 34.375C15.7505 35.2363 15.4246 35.9131 14.7729 36.4053C14.1213 36.8929 13.244 37.1367 12.1411 37.1367C11.3755 37.1367 10.6782 36.9977 10.0493 36.7197C9.42041 36.4372 8.93962 36.0521 8.60693 35.5645C8.27881 35.0768 8.11475 34.5117 8.11475 33.8691H10.1724C10.1724 34.9675 10.8286 35.5166 12.1411 35.5166C12.6287 35.5166 13.0093 35.4186 13.2827 35.2227C13.5562 35.0221 13.6929 34.7441 13.6929 34.3887ZM29.7188 37H27.668L23.6758 30.4512V37H21.625V27.0469H23.6758L27.6748 33.6094V27.0469H29.7188V37ZM41.9781 32.6865H38.0406V35.3525H42.6617V37H35.9898V27.0469H42.648V28.708H38.0406V31.0801H41.9781V32.6865Z" fill="black"/>
<path d="M51.9067 30.4785L53.7729 27.0469H56.1313L53.2329 31.9824L56.2065 37H53.8208L51.9067 33.5137L49.9927 37H47.6069L50.5806 31.9824L47.6821 27.0469H50.0405L51.9067 30.4785Z" fill="#599CFF"/>
<defs>
<linearGradient id="paint0_linear" x1="32" y1="0" x2="32" y2="64" gradientUnits="userSpaceOnUse">
<stop stop-color="white"/>
<stop offset="1" stop-color="#F9F9F9"/>
</linearGradient>
</defs>
</svg>
